<?xml version="1.0" standalone="no"?>
<!DOCTYPE svg PUBLIC "-//W3C//DTD SVG 1.1//EN" "http://www.w3.org/Graphics/SVG/1.1/DTD/svg11.dtd" >
<svg xmlns="http://www.w3.org/2000/svg">
<metadata>Generated by IcoMoon</metadata>
<defs>
<font id="icomoon" horiz-adv-x="1024">
<font-face units-per-em="1024" ascent="960" descent="-64" />
<missing-glyph horiz-adv-x="1024" />
<glyph unicode="&#x20;" horiz-adv-x="512" d="" />
<glyph unicode="&#xe900;" glyph-name="calendar" horiz-adv-x="1025" d="M931.457 863.987h-92.799v69.599c0 12.802-10.377 23.199-23.199 23.199s-23.199-10.398-23.199-23.199v-69.599h-556.793v69.599c0 12.802-10.377 23.199-23.199 23.199-12.823 0-23.199-10.398-23.199-23.199v-69.599h-92.8c-51.248 0-92.799-41.55-92.799-92.822v-742.367c0-51.248 41.55-92.799 92.799-92.799h835.189c51.248 0 92.799 41.55 92.799 92.799v742.367c0 51.272-41.55 92.822-92.799 92.822zM977.856 28.799c0-25.624-20.775-46.4-46.4-46.4h-835.188c-25.625 0-46.4 20.775-46.4 46.4v556.792h927.987v-556.792zM977.856 631.99h-927.987v139.175c0 25.647 20.775 46.422 46.4 46.422h92.799v-69.599c0-12.822 10.376-23.199 23.199-23.199 12.822 0 23.199 10.377 23.199 23.199v69.599h556.792v-69.599c0-12.822 10.377-23.199 23.199-23.199s23.199 10.377 23.199 23.199v69.599h92.799c25.624 0 46.4-20.775 46.4-46.422v-139.175zM677.235 99.011h43.386v372.712h-33.168c-2.401-14.001-6.818-25.557-13.275-34.686-6.48-9.108-14.365-16.291-23.745-21.546-9.356-5.257-19.801-8.86-31.378-10.762-11.577-1.948-23.494-2.9-35.73-2.9v-35.75h93.91v-267.068zM312.768 124.497c10.535-10.331 23.29-18.124 38.289-23.38 14.955-5.257 31.628-7.886 50.002-7.886 17.015 0 33.101 2.357 48.235 7.093s28.32 11.827 39.558 21.297c11.238 9.47 20.163 21.295 26.779 35.479 6.661 14.206 9.969 30.585 9.969 49.163 0 22.43-5.348 41.869-16.086 58.361-10.716 16.449-27.141 27.143-49.253 32.059v1.042c14.296 6.661 26.19 16.472 35.728 29.452 9.537 12.959 14.296 27.844 14.296 44.678 0 17.172-2.809 32.081-8.429 44.678-5.619 12.618-13.365 22.949-23.199 31.015-9.878 8.067-21.546 14.114-34.981 18.146-13.459 4.035-28.002 6.027-43.634 6.027-18.036 0-33.939-2.946-47.715-8.927-13.774-5.958-25.283-14.182-34.459-24.693s-16.244-23.155-21.183-37.859c-4.939-14.724-7.748-31.015-8.428-48.892h43.386c0 10.853 1.36 21.207 4.101 31.015 2.719 9.811 6.886 18.397 12.505 25.761 5.595 7.364 12.734 13.23 21.434 17.604 8.653 4.394 18.78 6.593 30.359 6.593 18.371 0 33.688-5.009 45.944-14.999 12.236-9.993 18.351-24.968 18.351-44.928 0-9.832-1.856-18.6-5.595-26.301-3.761-7.704-8.768-14.114-15.066-19.191-6.298-5.074-13.616-8.927-21.93-11.577-8.361-2.605-17.128-3.942-26.304-3.942h-14.296c-1.36 0-2.9 0.181-4.577 0.543v-37.857c8.157 1.042 16.833 1.584 26.009 1.584 10.899 0 21.026-1.494 30.382-4.464 9.356-2.99 17.423-7.545 24.241-13.684 6.82-6.139 12.256-13.662 16.335-22.61 4.079-8.927 6.117-19.191 6.117-30.744 0-11.214-2.129-21.297-6.366-30.222-4.259-8.927-9.946-16.472-17.106-22.61-7.159-6.141-15.497-10.876-25.014-14.184-9.514-3.352-19.574-5.007-30.109-5.007-24.854 0-43.727 7.635-56.663 22.882-12.913 15.226-19.733 34.959-20.413 59.134h-43.386c-0.318-19.281 2.312-36.453 7.931-51.519 5.617-15.066 13.684-27.775 24.24-38.129z" />
<glyph unicode="&#xe901;" glyph-name="pull2" d="M480 217.6c-12.8 0-32 6.4-38.4 19.2l-300.8 320c-19.2 19.2-19.2 51.2 0 70.4 6.4 6.4 19.2 12.8 32 12.8 19.2 0 32-6.4 38.4-19.2l268.8-281.6 268.8 281.6c6.4 12.8 19.2 19.2 38.4 19.2 12.8 0 25.6-6.4 32-12.8 19.2-19.2 19.2-51.2 0-70.4l-300.8-320c-12.8-12.8-25.6-19.2-38.4-19.2z" />
<glyph unicode="&#xe902;" glyph-name="tick" d="M510.578-19.377c-262.077 0-475.339 213.266-475.339 475.339s213.266 475.339 475.339 475.339 475.339-213.266 475.339-475.339-213.266-475.339-475.339-475.339zM510.578 864.955c-225.583 0-408.989-183.408-408.989-408.989s183.408-408.989 408.989-408.989 408.989 183.408 408.989 408.989-183.408 408.989-408.989 408.989zM431.906 262.602l-167.766 143.123c-16.112 13.741-18.006 38.388-4.266 54.023 13.741 16.112 38.388 18.006 54.023 4.266l167.766-143.596c16.112-13.741 18.006-38.388 4.266-54.023-13.741-15.639-37.913-17.537-54.023-3.788zM780.711 577.287l-293.355-313.735c-14.691-15.639-38.862-16.112-54.501-1.894-15.639 14.691-16.112 38.862-1.894 54.501l293.355 313.735c14.691 15.639 38.862 16.112 54.501 1.894 15.639-14.691 16.589-38.862 1.894-54.501z" />
<glyph unicode="&#xe903;" glyph-name="history" d="M499.95 486.263h-171.554v-74.308h245.828v307.371h-74.274zM588.492 304.060h435.61v-74.308h-435.61zM588.492 159.881h435.61v-74.377h-435.61zM588.492 15.633h435.61v-74.377h-435.61zM58.845 588.834c9.114-5.325 20.275-6.622 30.31-3.311l213.675 69.291c9.455 3.038 17.135 9.626 21.641 18.466s5.325 18.91 2.253 28.365c-4.955 15.034-18.873 25.694-35.28 25.694-4.117 0-8.078-0.671-11.778-1.91l0.262 0.076-124.757-40.448c17.114 25.773 35.569 48.25 56.043 68.707l0.004 0.004c77.801 78.224 185.509 126.636 304.524 126.636 0.413 0 0.825-0.001 1.238-0.002h-0.064c115.473 0 224.017-44.988 305.698-126.635 78.204-77.803 126.602-185.502 126.602-304.505 0-0.42-0.001-0.839-0.002-1.258v0.065c0-0.157 0-0.342 0-0.528 0-30.292-3.107-59.859-9.020-88.398l0.486 2.808-1.195-6.076h75.742l0.717 4.164c5.018 28.774 7.612 58.402 7.612 88.030 0 68.403-13.449 134.758-39.868 197.222-26.815 62.597-63.427 116.035-108.5 160.997l-0.010 0.010c-91.425 91.706-217.877 148.446-357.582 148.446-0.24 0-0.48 0-0.719-0.001h0.038c-68.403 0-134.758-13.414-197.222-39.834-62.615-26.838-116.065-63.485-161.027-108.598l-0.014-0.014c-23.927-23.893-45.466-50.21-64.102-78.302l-20.821 105.984c-3.486 17.224-18.501 30.008-36.503 30.008-2.519 0-4.979-0.25-7.358-0.727l0.238 0.040c-9.926-1.959-18.247-7.69-23.571-15.604l-0.083-0.131c-3.974-5.782-6.347-12.933-6.347-20.639 0-2.553 0.26-5.045 0.756-7.451l-0.041 0.237 40.448-205.995c2.014-10.411 8.431-19.49 17.579-24.883zM211.216 142.37c-58.915 58.595-100.901 134.157-118.012 218.739l-0.465 2.752-0.785 4.096h-75.435l0.99-5.939c18.876-107.302 69.266-200.528 141.132-272.238l0.009-0.009c44.981-45.097 98.431-81.722 157.765-107.288l3.276-1.256c56.952-24.764 123.256-39.369 192.917-39.833l5.262-0.035v74.342l-5.018 0.068c-117.956 0.827-224.487 49.065-301.618 126.583l-0.018 0.018z" />
<glyph unicode="&#xe904;" glyph-name="setting" d="M512 291.978c-82.602 0-151.425 68.852-151.425 151.425s68.852 151.425 151.425 151.425c82.602 0 151.425-68.852 151.425-151.425s-68.852-151.425-151.425-151.425zM512 548.959c-55.079 0-100.959-45.892-100.959-100.959s45.892-100.959 100.959-100.959c55.079 0 100.959 45.892 100.959 100.959s-45.892 100.959-100.959 100.959zM567.079 764.616v-32.139c0-22.946 13.764-45.892 36.71-55.079 9.18-4.593 13.764-4.593 22.946-4.593 18.366 0 32.139 4.593 41.306 18.366l22.946 22.946 82.602-82.602-22.946-22.946c-18.366-18.366-22.946-41.306-13.764-64.246s32.139-36.71 55.079-36.71h32.139v-114.732h-32.139c-22.946 0-45.892-13.764-55.079-36.71s-4.593-50.474 13.764-64.246l22.946-22.946-82.602-82.602-22.946 22.946c-9.18 9.18-27.533 18.366-41.306 18.366-9.18 0-13.764 0-22.946-4.593-22.946-9.18-36.71-32.139-36.71-55.079v-32.139h-114.732v32.139c0 22.946-13.764 45.892-36.71 55.079-9.18 4.593-13.764 4.593-22.946 4.593-18.366 0-32.139-4.593-41.306-18.366l-22.946-22.946-82.602 82.602 22.946 22.946c18.366 18.366 22.946 41.306 13.764 64.246s-32.139 36.71-55.079 36.71h-32.139v110.13h32.139c22.946 0 45.892 13.764 55.079 36.71s4.593 50.474-13.764 64.246l-22.946 22.946 82.602 82.602 22.946-22.946c9.18-9.18 27.533-18.366 41.306-18.366 9.18 0 13.764 0 22.946 4.593 22.946 9.18 36.71 32.139 36.71 55.079v32.139h114.732zM567.079 815.092h-114.732c-27.533 0-50.474-27.533-50.474-55.079v-32.139c0-4.593-4.593-9.18-4.593-9.18s-4.593 0-4.593 0-4.593 0-9.18 4.593l-22.946 22.946c-9.18 9.18-22.946 13.764-36.71 13.764s-27.533-4.593-36.71-13.764l-82.602-82.602c-18.366-18.366-18.366-50.474 0-68.852l22.946-22.946c4.593-4.593 4.593-9.18 0-9.18 0-4.593-4.593-4.593-9.18-4.593h-32.139c-27.533 0-50.474-22.946-50.474-50.474v-114.732c0-27.533 22.946-50.474 50.474-50.474h32.139c4.593 0 9.18-4.593 9.18-4.593 0-4.593 0-9.18 0-9.18l-22.946-22.946c-18.366-18.366-18.366-50.474 0-68.852l82.602-82.602c9.18-9.18 22.946-13.764 36.71-13.764s27.533 4.593 36.71 13.764l22.946 22.946c4.593 4.593 9.18 4.593 9.18 0 4.593 0 4.593-4.593 4.593-9.18v-32.139c0-27.533 22.946-50.474 50.474-50.474h114.732c27.533 0 50.474 22.946 50.474 50.474v32.139c0 4.593 4.593 9.18 4.593 9.18s4.593 0 4.593 0 4.593 0 9.18-4.593l22.946-22.946c9.18-9.18 22.946-13.764 36.71-13.764s27.533 4.593 36.71 13.764l82.602 82.602c18.366 18.366 18.366 50.474 0 68.852l-22.946 22.946c-4.593 4.593-4.593 9.18 0 9.18 0 4.593 4.593 4.593 9.18 4.593h32.139c27.533 0 50.474 22.946 50.474 50.474v114.732c0 27.533-22.946 50.474-50.474 50.474h-32.139c-4.593 0-9.18 4.593-9.18 4.593 0 4.593 0 9.18 0 9.18l22.946 22.946c18.366 18.366 18.366 50.474 0 68.852l-82.602 82.602c-9.18 9.18-22.946 13.764-36.71 13.764s-27.533-4.593-36.71-13.764l-22.946-22.946c0 0-4.593-4.593-9.18-4.593 0 0-4.593 0-4.593 0-4.593 0-4.593 4.593-4.593 9.18v32.139c4.593 32.139-18.366 59.656-45.892 59.656z" />
<glyph unicode="&#xe905;" glyph-name="linechart" d="M168 792h43v-688h-43v688zM168 147h688v-43h-688v43zM395.9 452.3l34.4 25.8 98.9-141.9-34.4-25.8-98.9 141.9zM189.5 362l215 150.5 25.8-34.4-240.8-167.7v51.6zM469 344.8l318.2 223.6 25.8-34.4-318.2-223.6-25.8 34.4z" />
<glyph unicode="&#xe906;" glyph-name="bargraph" d="M128 64h819.2c6.4 0 12.8-6.4 12.8-12.8v-38.4c0-6.4-6.4-12.8-12.8-12.8h-870.4c-6.4 0-12.8 6.4-12.8 12.8v870.4c0 6.4 6.4 12.8 12.8 12.8h38.4c6.4 0 12.8-6.4 12.8-12.8v-819.2zM192 537.6c0 19.2 12.8 32 32 32h64c19.2 0 32-12.8 32-32v-384c0-19.2-12.8-32-32-32 0 0 0 0 0 0h-64c-19.2 0-32 12.8-32 32v384zM384 793.6c0 19.2 12.8 32 32 32h64c19.2 0 32-12.8 32-32v-640c0-19.2-12.8-32-32-32 0 0 0 0 0 0h-64c-19.2 0-32 12.8-32 32v640zM576 416c0 19.2 12.8 32 32 32h64c19.2 0 32-12.8 32-32v-256c0-19.2-12.8-32-32-32 0 0 0 0 0 0h-64c-19.2 0-32 12.8-32 32 0 0 0 0 0 0v256zM768 601.6c0 19.2 12.8 32 32 32h64c19.2 0 32-12.8 32-32v-448c0-19.2-12.8-32-32-32h-64c-19.2 0-32 12.8-32 32v448z" />
<glyph unicode="&#xe907;" glyph-name="edit" d="M976.394 936.108c-15.747 15.747-37.208 23.876-59.303 23.892-22.142-0.325-43.014-9.151-58.854-24.914l-37.874-37.827c-0.155-0.186-0.232-0.387-0.372-0.542l-494.075-492.681c-1.61-1.61-2.446-3.608-3.623-5.466-2.028-2.354-3.794-4.908-5.063-7.819l-50.385-116.129c-5.017-11.613-2.617-25.084 6.147-34.235 6.070-6.348 14.354-9.77 22.854-9.77 3.732 0 7.525 0.666 11.133 2.028l121.146 45.569c3.36 1.254 6.286 3.236 8.965 5.45 1.951 1.239 4.057 2.168 5.683 3.794l496.026 494.632c0.093 0.093 0.124 0.217 0.232 0.31l36.248 36.077c32.795 32.686 33.29 85.471 1.115 117.631v0zM420.445 354.286l-27.515 27.453 451.37 450.101 27.499-27.453-451.355-450.101zM930.639 863.040l-14.183-14.121-27.623 27.546 14.106 14.090c4.103 4.088 9.43 6.364 15.050 6.441 5.326 0.124 10.111-1.843 13.672-5.388 7.603-7.587 7.107-20.423-1.022-28.568v0zM905.094 606.431c-17.466 0-31.587-14.106-31.587-31.494v-520.428c0-17.357-14.168-31.479-31.587-31.479h-747.159c-17.435 0-31.587 14.121-31.587 31.479v744.945c0 17.357 14.152 31.494 31.587 31.494h517.208c17.45 0 31.587 14.106 31.587 31.494s-14.137 31.494-31.587 31.494h-517.208c-52.258 0-94.761-42.379-94.761-94.483v-744.945c0-52.103 42.503-94.483 94.761-94.483h747.159c52.243 0 94.761 42.379 94.761 94.483v520.428c0 17.388-14.137 31.494-31.587 31.494z" />
<glyph unicode="&#xe908;" glyph-name="collect" horiz-adv-x="1018" d="M895.284 895.997h-369.368c-34.082 0-61.715-27.634-61.715-61.715v-350.646h-89.6v-71.271h89.6v-350.646c0-34.082 27.634-61.716 61.715-61.716h369.371c34.079 0 61.715 27.634 61.715 61.716v772.569c0 34.080-27.636 61.715-61.717 61.715zM525.916 44.797c-9.324 0-16.917 7.588-16.917 16.917v772.568c0 9.324 7.588 16.915 16.917 16.915h369.371c9.324 0 16.915-7.588 16.915-16.915v-772.569c0-9.324-7.588-16.917-16.915-16.917l-369.371 0.001zM688.202 761.596h-89.6v-89.599h89.6v89.599zM822.599 761.596h-89.598v-89.599h89.598v89.599zM688.202 627.197h-89.6v-89.6h89.6v89.6zM822.599 627.197h-89.598v-89.6h89.598v89.6zM688.202 492.797h-89.6v-89.6h89.6v89.6zM178.042 851.196c9.572 0 17.357-7.787 17.357-17.356v-99.686c0-9.572-7.787-17.357-17.357-17.357h-54.886c-9.572 0-17.357 7.787-17.357 17.357v99.687c0 9.57 7.787 17.356 17.357 17.356l54.886-0.001zM178.042 537.597c9.572 0 17.357-7.787 17.357-17.357v-144.487c0-9.57-7.787-17.356-17.357-17.356h-54.886c-9.572 0-17.357 7.787-17.357 17.356v144.487c0 9.57 7.787 17.356 17.357 17.356l54.886 0.001zM178.042 179.196c9.572 0 17.357-7.787 17.357-17.357v-99.684c0-9.57-7.787-17.357-17.357-17.357h-54.886c-9.572 0-17.357 7.787-17.357 17.357v99.686c0 9.57 7.787 17.356 17.357 17.356h54.886zM178.042 895.997h-54.886c-34.329 0-62.157-27.828-62.157-62.157v-99.686c0-34.329 27.828-62.157 62.158-62.157h54.886c34.329 0 62.158 27.828 62.158 62.157v27.441h89.599v-277.96h-89.599v36.604c0 34.329-27.829 62.158-62.158 62.158h-54.886c-34.329 0-62.158-27.829-62.158-62.158v-144.487c0-34.326 27.828-62.157 62.158-62.157h54.886c34.329 0 62.158 27.831 62.158 62.157v36.607h89.599v-277.961h-89.599v27.444c0 34.329-27.829 62.157-62.158 62.157h-54.886c-34.329 0-62.158-27.828-62.158-62.157v-99.686c0-34.329 27.828-62.158 62.158-62.158h54.886c34.329 0 62.158 27.829 62.158 62.158v27.444h89.599c24.741 0 44.8 20.059 44.8 44.8v627.196c0 24.741-20.059 44.8-44.8 44.8h-89.599v27.444c-0.001 34.33-27.831 62.158-62.159 62.158zM822.599 492.797h-89.598v-89.6h89.598v89.6zM688.202 358.396h-89.6v-89.6h89.6v89.6zM822.599 358.396h-89.598v-89.6h89.598v89.6zM688.202 223.996h-89.6v-89.599h89.6v89.599zM822.599 223.996h-89.598v-89.599h89.598v89.599z" />
<glyph unicode="&#xe909;" glyph-name="warning" d="M961.579 178.475l-87.893 105.131v191.957c0 157.568-112 294.827-260.736 338.773v38.443c0 46.933-36.907 85.12-82.304 85.12h-37.419c-45.312 0-82.219-38.187-82.219-85.12v-38.443c-148.736-43.947-260.779-181.205-260.779-338.773v-191.957l-87.851-105.131c-4.289-5.145-6.892-11.826-6.892-19.115 0-16.505 13.35-29.892 29.841-29.952h853.339c0.010 0 0.022 0 0.035 0 16.495 0 29.867 13.372 29.867 29.867 0 7.332-2.642 14.047-7.026 19.245l0.037-0.045zM470.741 852.779c0 13.995 10.069 25.344 22.443 25.344h37.461c12.459 0 22.528-11.392 22.528-25.344v-26.24c-13.568 1.621-27.264 2.645-41.173 2.645s-27.648-1.024-41.216-2.603v26.197zM149.205 189.184l53.845 64.427c4.32 5.149 6.947 11.846 6.955 19.156v202.797c0 159.275 138.283 293.888 301.995 293.888 163.669 0 301.995-134.571 301.995-293.888v-202.795c0-6.997 2.475-13.781 6.955-19.157l53.888-64.427h-725.632zM608 94.549c-16.495 0-29.867-13.372-29.867-29.867v0c0-18.133-28.288-38.357-66.133-38.357-38.997 0-66.133 20.224-66.133 38.357 0 16.495-13.372 29.867-29.867 29.867s-29.867-13.372-29.867-29.867v0c0-54.997 55.296-98.133 125.909-98.133s125.867 43.136 125.867 98.133c-0.048 16.49-13.416 29.842-29.907 29.867h-0.002z" />
<glyph unicode="&#xe90a;" glyph-name="mine" d="M237.655 36.179c41.992 0 270.266 0 270.266 0h270.292c41.992 0 104.217 18.264 104.217 90.343 0 121.198-272.873 86.797-272.873 211.481 0 77.027 120.652 148.019 120.652 326.714 0 150.89-98.913 237.567-222.288 237.567-123.373 0-222.286-86.677-222.286-237.567 0-178.695 120.652-249.687 120.652-326.714 0-124.684-272.874-90.283-272.874-211.481 0.002-101.818 104.241-90.343 104.241-90.343z" />
<glyph unicode="&#xe90b;" glyph-name="monitoring" d="M981.333 960h-938.667c-21.333 0-42.667-21.333-42.667-42.667v-682.667c0-21.333 21.333-42.667 42.667-42.667h362.667c12.8 0 21.333 8.533 21.333 21.333s-8.533 21.333-21.333 21.333h-362.667v682.667h938.667v-682.667h-426.667c-21.333 0-42.667-21.333-42.667-42.667v-213.333h-192c-12.8 0-21.333-8.533-21.333-21.333s8.533-21.333 21.333-21.333h426.667c12.8 0 21.333 8.533 21.333 21.333s-8.533 21.333-21.333 21.333h-192v213.333h426.667c21.333 0 42.667 21.333 42.667 42.667v682.667c0 21.333-21.333 42.667-42.667 42.667zM640 576c-12.8 0-25.6-8.533-34.133-17.067l-42.667-64-98.133 226.133c-4.267 17.067-21.333 25.6-38.4 25.6s-29.867-8.533-38.4-25.6l-72.533-145.067h-187.733v-42.667h213.333l85.333 170.667 110.933-264.533c8.533-17.067 25.6-17.067 38.4-4.267l64 98.133h256v42.667h-256z" />
<glyph unicode="&#xe90c;" glyph-name="survey" d="M337.101 435.098h4.096c24.781 0 47.514 8.806 65.126 23.552l175.718-105.472c-1.434-6.758-2.048-13.517-2.048-20.48 0-56.525 45.875-102.4 102.4-102.4s102.4 45.875 102.4 102.4c0 30.72-13.517 58.163-34.816 77.005l64.922 161.997h4.096c56.525 0 102.4 45.875 102.4 102.4s-45.875 102.4-102.4 102.4-102.4-45.875-102.4-102.4c0-30.72 13.517-58.163 34.816-77.005l-64.922-161.997h-4.096c-24.781 0-47.514-8.806-65.126-23.552l-175.718 105.472c1.434 6.758 2.048 13.517 2.048 20.48 0 56.525-45.875 102.4-102.4 102.4s-102.4-45.875-102.4-102.4c0-30.72 13.517-58.163 34.816-77.005l-64.717-161.997h-4.096c-56.525 0-102.4-45.875-102.4-102.4s45.875-102.4 102.4-102.4 102.4 45.875 102.4 102.4c0 30.72-13.517 58.163-34.816 77.005l64.717 161.997z" />
<glyph unicode="&#xe90d;" glyph-name="exit" d="M822.751 750.223c-13.447 13.447-35.242 13.447-48.707 0-13.465-13.483-13.465-35.277 0-48.725 144.48-144.497 144.48-379.592 0-524.090-144.443-144.461-379.574-144.461-524.089 0-144.479 144.498-144.479 379.593 0 524.090 13.466 13.447 13.466 35.241 0 48.725-13.465 13.447-35.258 13.447-48.706 0-83.017-83.017-128.753-193.367-128.753-310.751s45.736-227.77 128.753-310.751c85.659-85.715 198.195-128.535 310.75-128.535s225.090 42.82 310.752 128.535c83.018 82.98 128.752 193.367 128.752 310.751s-45.734 227.734-128.752 310.751zM511.999 284.042c19.041 0 34.457 15.452 34.457 34.476v542.857c0 19.023-15.416 34.438-34.457 34.438s-34.457-15.415-34.457-34.438v-542.857c0-19.024 15.416-34.476 34.457-34.476z" />
<glyph unicode="&#xe90e;" glyph-name="callChain" d="M588.8 486.4l-9.6 6.4c-9.6 9.6-25.6 6.4-32-3.2-9.6-9.6-6.4-25.6 3.2-32l9.6-6.4c19.2-16 19.2-41.6 3.2-64l-12.8-16c-9.6-9.6-6.4-25.6 3.2-32 9.6-9.6 25.6-6.4 32 3.2l12.8 16c32 38.4 28.8 96-9.6 128zM448 240l-140.8-176c-16-19.2-44.8-22.4-60.8-9.6l-137.6 112c-19.2 16-19.2 41.6-3.2 64l265.6 326.4c16 19.2 44.8 22.4 60.8 9.6l12.8-9.6c9.6-9.6 25.6-6.4 32 3.2 9.6 9.6 6.4 25.6-3.2 32l-12.8 9.6c-38.4 32-96 22.4-128-16l-265.6-326.4c-32-38.4-28.8-96 9.6-128l137.6-112c38.4-32 96-22.4 128 16l140.8 176c9.6 9.6 6.4 25.6-3.2 32-9.6 9.6-22.4 6.4-32-3.2zM944 684.8l-128 105.6c-41.6 32-99.2 25.6-131.2-12.8l-262.4-326.4c-32-41.6-25.6-99.2 12.8-131.2l128-105.6c41.6-32 99.2-25.6 131.2 12.8l262.4 326.4c35.2 41.6 28.8 99.2-12.8 131.2zM921.6 582.4l-262.4-326.4c-16-19.2-44.8-22.4-67.2-6.4l-128 105.6c-19.2 16-22.4 44.8-6.4 67.2l262.4 326.4c16 19.2 44.8 22.4 67.2 6.4l128-105.6c19.2-16 22.4-44.8 6.4-67.2z" />
<glyph unicode="&#xe90f;" glyph-name="account" d="M869.309 111.998c0 162.984-110.597 301.388-260.447 343.879 76.73 36.323 129.808 114.446 129.808 204.976 0 125.187-101.483 226.671-226.671 226.671s-226.671-101.484-226.671-226.671c0-90.531 53.080-168.653 129.808-204.976-149.849-42.492-260.445-180.896-260.445-343.879v-66.239h714.617l-0.001 66.239z" />
<glyph unicode="&#xe910;" glyph-name="password" d="M760.468-0.75h-496.401c-60.878 0-110.334 52.256-110.334 116.596v349.515c0 64.249 49.457 116.503 110.334 116.503h28.624c-2.932 14.533-4.507 29.5-4.507 44.819v44.817c0 123.772 100.313 224.083 224.084 224.083 123.727 0 224.086-100.311 224.086-224.083v-44.816c0-15.319-1.577-30.286-4.509-44.819h28.623c60.834 0 110.334-52.254 110.334-116.503v-349.516c0-64.34-49.5-116.596-110.334-116.596zM467.451 280.402v-101.889c0-24.682 20.091-44.816 44.817-44.816s44.816 20.135 44.816 44.816v101.889c27.177 15.406 45.689 44.117 45.689 77.381 0 49.545-40.525 89.633-90.506 89.633-50.025 0-90.553-40.088-90.553-89.633 0.001-33.263 18.557-61.974 45.737-77.381zM646.716 671.5c0 74.272-60.173 134.451-134.448 134.451-74.27 0-134.452-60.179-134.452-134.451v-89.635h268.9v89.635z" />
<glyph unicode="&#xe911;" glyph-name="delete" d="M609.257 93.532c22.567 0 41.116 18.116 41.667 39.501l12.091 485.83c0.551 21.779-17.683 40.092-40.683 40.565-23.394 0.354-42.14-16.541-42.652-38.28l-12.091-486.303c-0.001-0.106-0.002-0.23-0.002-0.355 0-22.524 18.182-40.802 40.669-40.957h1zM412.892 93.532h0.985c23.039 0 41.234 20.912 40.683 42.652l-12.091 486.499c-0.551 21.739-19.416 39.501-42.652 39.029-23-0.512-41.234-18.234-40.683-40.013l12.13-487.484c1-22.383 19.157-40.211 41.583-40.682l0.045-0.001zM392.925 824.916h238.11v56.278h-238.11v-56.278zM1023.961 779.98c0-24.89-21.306-45.015-47.654-45.015h-928.654c-26.387-0.039-47.654 20.085-47.654 44.976 0 24.811 21.306 44.976 47.654 44.976h261.898v101.293c0 21.739 15.359 33.751 38.399 33.751h328.061c23.039 0 38.399-12.012 38.399-33.751v-101.333h261.898c26.347 0 47.654-20.125 47.654-44.976zM897.698 629.3l-36.351-650.609c-1.3-23.906-22.212-42.652-47.535-42.652h-603.664c-25.323 0-46.236 18.746-47.535 42.652l-36.351 650.609c-1.418 24.811 18.786 46.039 45.054 47.338 26.387 1.181 48.678-17.762 50.056-42.573l33.948-607.996h513.319l33.948 607.996c1.378 24.811 23.945 43.715 50.056 42.534 26.269-1.26 46.472-22.448 45.054-47.26z" />
<glyph unicode="&#xe912;" glyph-name="poewradd" d="M873.954 810.1c-96.667 96.667-225.289 149.973-362.1 149.973s-265.36-53.306-362.1-149.973c-199.623-199.623-199.623-524.504 0-724.2 96.74-96.74 225.289-149.973 362.1-149.973s265.433 53.233 362.1 149.973c92.55 92.725 149.781 220.729 149.781 362.1s-57.231 269.376-149.789 362.108l0.008-0.008zM822.256 137.597c-82.993-82.92-193.188-128.548-310.403-128.548s-227.409 45.628-310.403 128.548c-79.304 79.501-128.341 189.225-128.341 310.403s49.037 230.902 128.35 310.412l-0.009-0.009c82.993 82.847 193.188 128.548 310.403 128.548s227.409-45.701 310.403-128.548c79.304-79.501 128.341-189.225 128.341-310.403s-49.037-230.902-128.35-310.412l0.009 0.009zM731.293 484.561h-182.878v182.951c0 20.192-16.369 36.561-36.561 36.561s-36.561-16.369-36.561-36.561v0-182.951h-182.878c-19.212-1.253-34.321-17.142-34.321-36.561s15.109-35.308 34.212-36.555l0.109-0.006h182.878v-182.878c1.253-19.212 17.142-34.321 36.561-34.321s35.308 15.109 36.555 34.212l0.006 0.109v182.878h182.878c19.212 1.253 34.321 17.142 34.321 36.561s-15.109 35.308-34.212 36.555l-0.109 0.006z" />
<glyph unicode="&#xe913;" glyph-name="plus" d="M566.999 55.196v784.268c0 30.988-25.092 56.081-56.023 56.081-30.929 0-56.023-25.094-56.023-56.081v-784.268c0-30.93 25.094-56.023 56.023-56.023s56.023 25.153 56.023 56.023zM903.139 503.382h-784.297c-30.988 0-56.053-25.094-56.053-56.023s25.065-56.023 56.053-56.023h784.297c30.93 0 56.023 25.092 56.023 56.023 0 30.929-25.152 56.023-56.023 56.023z" />
<glyph unicode="&#xe914;" glyph-name="pull" d="M1024 704l-511.898-512-512.102 512h1024z" />
<glyph unicode="&#xe915;" glyph-name="pushToHome" d="M357.349 564.524h-219.33c-16.65 0-30.148-15.003-30.148-33.508v-360.208c0-18.508 13.497-33.508 30.148-33.508h219.33c16.65 0 30.148 15.001 30.148 33.508v360.208c0 18.505-13.498 33.508-30.148 33.508zM219.492 538.44h55.395c2.698 0 4.885-2.187 4.885-4.885s-2.188-4.884-4.885-4.884h-55.395c-2.698 0-4.885 2.187-4.885 4.884s2.187 4.885 4.885 4.885zM246.93 157.758c-7.136 0-12.919 5.785-12.919 12.92s5.784 12.919 12.919 12.919 12.919-5.784 12.919-12.919-5.785-12.92-12.919-12.92zM364.21 190.809h-233.825v321.318h233.825v-321.318zM725.955 179.297h-91.842v23.408c0 5.651-4.582 10.233-10.233 10.233h-115.122c-5.651 0-10.233-4.582-10.233-10.233v-23.408h-67.538c-5.652 0-10.233-4.582-10.233-10.233v-17.14c0-5.651 4.581-10.233 10.233-10.233h294.968c5.651 0 10.233 4.582 10.233 10.233v17.14c0 5.651-4.582 10.233-10.233 10.233zM874.591 758.233h-627.287c-22.606 0-40.932-18.326-40.932-40.932v-120.238h32.746v125.355c0 2.825 2.291 5.117 5.117 5.117h637.52c2.826 0 5.117-2.291 5.117-5.117v-385.786c0-2.826-2.29-5.117-5.117-5.117h-460.999v-90.051h453.836c22.607 0 40.932 18.325 40.932 40.932v434.905c0 22.606-18.325 40.932-40.932 40.932zM562.196 276.574c-10.009 0-18.123 8.114-18.123 18.123s8.114 18.123 18.123 18.123 18.123-8.114 18.123-18.123-8.114-18.123-18.123-18.123z" />
<glyph unicode="&#xe916;" glyph-name="personalcenter" d="M512 903.315c61.492 0 121.114-12.030 177.211-35.757 54.212-22.93 102.911-55.768 144.745-97.602s74.672-90.533 97.602-144.745c23.727-56.097 35.757-115.72 35.757-177.211s-12.030-121.114-35.757-177.211c-22.93-54.212-55.768-102.911-97.602-144.745s-90.533-74.672-144.745-97.602c-56.097-23.727-115.72-35.757-177.211-35.757s-121.114 12.030-177.211 35.757c-54.212 22.93-102.911 55.768-144.745 97.602s-74.672 90.533-97.602 144.745c-23.727 56.097-35.757 115.72-35.757 177.211s12.030 121.114 35.757 177.211c22.93 54.212 55.768 102.911 97.602 144.745 41.833 41.834 90.533 74.672 144.745 97.602 56.097 23.727 115.72 35.757 177.211 35.757zM512 960c-282.77 0-512-229.23-512-512s229.23-512 512-512 512 229.23 512 512-229.23 512-512 512zM262.783 134.099h498.435c0 0.969-498.435 0-498.435 0zM820.273 178.929c-15.777 108.616-87.994 199.022-186.085 240.732 57.855 39.066 95.878 105.090 95.878 179.962 0 119.982-97.63 217.245-218.066 217.245s-218.065-97.263-218.065-217.245c0-74.872 38.024-140.897 95.878-179.958-98.092-41.71-170.308-132.12-186.086-240.736-2.047-4.009-3.247-8.744-3.247-13.759 0-0.012 0-0.025 0-0.037v0.002c0-17.14 13.946-31.036 31.152-31.036 17.205 0 31.15 13.896 31.15 31.036v-31.035c0 137.122 111.581 248.28 249.218 248.28s249.218-111.158 249.218-248.28v31.036c0-17.14 13.946-31.036 31.153-31.036 17.204 0 31.15 13.896 31.15 31.036 0 4.957-1.171 9.64-3.247 13.794zM512 444.45c-86.021 0-155.758 69.477-155.758 155.174 0 85.7 69.737 155.178 155.758 155.178 86.027 0 155.759-69.477 155.759-155.178s-69.732-155.175-155.759-155.175z" />
<glyph unicode="&#xe917;" glyph-name="powermanage" d="M511.718 960l-393.941-126.209c-14.418-4.826-24.625-18.208-24.625-33.975 0-0.174 0.001-0.348 0.004-0.521v0.026l2.019-496.070 0.443-5.712c17.13-65.902 51.204-122.314 97.307-166.206l0.144-0.136c81.058-65.532 172.477-124.29 269.984-172.616l8.631-3.869c10.144-5.417 17.826-9.405 22.159-11.867l7.386-4.087c2.342-1.254 5.123-1.99 8.076-1.99s5.734 0.736 8.169 2.035l-0.094-0.046 10.784 5.564c37.868 18.712 230.603 115.819 302.153 187.122 46.305 44.023 80.393 100.484 96.919 164.029l0.532 2.411 2.511 501.634c0.002 0.137 0.003 0.298 0.003 0.459 0 15.776-10.204 29.168-24.372 33.937l-0.252 0.074zM863.803 306.994c-15.241-51.613-42.63-95.687-78.934-130.545l-0.1-0.095c-77.45-61.574-164.942-116.745-258.187-161.901l-8.363-3.653c-2.314-1.237-5.061-1.964-7.977-1.964s-5.664 0.727-8.070 2.009l0.093-0.045c-100.425 49.555-186.843 104.569-266.578 167.659l3.081-2.352c-36.437 34.992-63.869 79.093-78.647 128.648l-0.535 2.091-1.822 460.812c0 0.003 0 0.006 0 0.010 0 7.006 4.529 12.954 10.82 15.075l0.112 0.033 332.388 106.561c3.185 1.056 6.852 1.665 10.661 1.665s7.476-0.609 10.908-1.735l-0.247 0.070 332.388-106.561c6.451-2.107 11.030-8.071 11.030-15.104 0-0.005 0-0.010 0-0.014v0.001l-1.871-460.862zM517.726 720.632c0.281 0.002 0.614 0.003 0.947 0.003 79.548 0 144.035-64.486 144.035-144.035 0-67.314-46.177-123.843-108.581-139.639l-0.995-0.213-0.394-60.765h60.125c0.083 0.001 0.181 0.001 0.279 0.001 9.875 0 18.814-4.009 25.277-10.489l0.001-0.001c6.57-6.546 10.636-15.602 10.636-25.607 0-19.962-16.182-36.144-36.144-36.144-0.104 0-0.207 0-0.311 0.001h-60.109v-100.898c-1.255-19.102-17.057-34.121-36.366-34.121s-35.11 15.018-36.36 34.011l-0.006 0.109 0.886 234.001c-50.644 12.607-89.983 51.079-103.616 100.242l-0.237 1.001c-3.152 11.284-4.964 24.243-4.964 37.624 0 80.119 64.949 145.069 145.069 145.069 0.326 0 0.651-0.001 0.976-0.003h-0.050zM605.082 577.483c0.002 0.188 0.002 0.41 0.002 0.632 0 23.315-9.531 44.404-24.91 59.582l-0.009 0.009c-15.534 15.368-36.905 24.863-60.495 24.863s-44.961-9.494-60.502-24.87l0.008 0.007c-15.492-15.376-25.081-36.68-25.081-60.224 0-46.859 37.986-84.845 84.845-84.845 0.11 0 0.219 0 0.329 0.001h-0.017c46.751 0.743 84.526 38.14 85.876 84.67l0.003 0.126z" />
<glyph unicode="&#xe918;" glyph-name="usermanage" d="M750.208 294.592c-55.040 0-100.096-45.056-100.096-100.16s45.056-100.16 100.096-100.16c55.104 0 100.096 45.056 100.096 100.16s-44.992 100.16-100.096 100.16zM750.208 145.6c-26.688 0-48.64 22.016-48.64 48.768s21.952 48.768 48.64 48.768c26.934 0 48.768-21.834 48.768-48.768s-21.834-48.768-48.768-48.768v0zM1015.168 246.656c-3.648 20.032-16.32 32.704-32.704 32.704h-2.304c-31.308 0.109-56.659 25.46-56.768 56.758v0.010c0 8.32 3.584 18.304 4.864 21.504 1.921 4.64 3.037 10.028 3.037 15.677 0 14.516-7.367 27.312-18.567 34.852l-0.15 0.095-66.24 36.736c-4.568 1.996-9.89 3.157-15.484 3.157-0.452 0-0.901-0.008-1.349-0.023l0.065 0.002c-0.121 0.001-0.263 0.002-0.406 0.002-12.304 0-23.437-5.018-31.462-13.118l-0.003-0.003c-8.448-8.384-30.464-25.984-45.44-25.984-15.296 0-37.568 17.984-45.568 26.816-8.106 8.098-19.299 13.106-31.663 13.106-5.976 0-11.679-1.17-16.893-3.294l0.3 0.108-1.344-0.384-67.392-37.12-1.472-1.152c-10.457-7.572-17.18-19.742-17.18-33.482 0-5.774 1.187-11.27 3.331-16.258l-0.102 0.268c0.32-1.28 5.248-12.352 5.248-21.504-0.109-31.308-25.46-56.659-56.758-56.768h-2.762c-16 0-28.736-12.672-32.32-32.704-0.384-3.264-5.568-30.336-5.568-52.608 0-22.528 5.184-49.536 5.568-52.8 3.584-19.968 16.384-32.704 32.768-32.704h2.368c31.308-0.109 56.659-25.46 56.768-56.758v-0.010c0-8.256-3.712-18.24-4.864-21.504-2.053-4.749-3.248-10.279-3.248-16.088 0-14.309 7.246-26.925 18.269-34.379l0.146-0.093 65.088-36.352c5.042-2.188 10.915-3.461 17.085-3.461 12.412 0 23.621 5.151 31.607 13.431l0.013 0.013c7.936 8.768 30.656 27.904 46.272 27.904s38.336-19.136 46.656-28.288c8.091-8.544 19.515-13.862 32.182-13.862 6.564 0 12.795 1.428 18.399 3.991l-0.277-0.113 65.792 36.288 1.6 1.344c10.486 7.595 17.229 19.802 17.229 33.582 0 5.71-1.157 11.149-3.251 16.097l0.102-0.271c-2.942 6.311-4.871 13.655-5.367 21.389l-0.009 0.179c0 31.104 25.6 56.64 56.704 56.64h2.88c15.936 0 28.736 12.8 32.32 32.768 0 0.32 5.568 29.568 5.568 52.608 0.256 22.272-4.864 49.856-5.312 53.056zM965.696 159.232c-53.415-7.295-94.135-52.619-94.144-107.455v-0.001c0-12.736 3.136-24.576 5.568-32.64l-47.488-26.304c-4.416 4.032-11.2 10.368-19.52 16.704-21.248 15.552-41.472 23.552-60.288 23.552-18.752 0-39.104-7.488-59.904-22.976-8.384-6.144-15.040-12.416-19.52-16.448l-45.376 25.536c2.688 8.064 5.44 20.416 5.44 32.64 0 54.72-40.64 100.608-94.080 107.456-1.216 8.832-3.2 23.104-3.2 34.816 0 11.52 1.984 25.856 3.2 34.624 53.374 7.351 94.047 52.649 94.080 107.453v0.003c0 12.672-3.008 24.64-5.44 32.704l49.088 26.688c4.352-3.968 11.2-9.984 19.456-15.936 20.736-14.784 40.32-21.952 59.072-21.952 18.432 0 37.952 7.104 58.688 21.568 8.448 5.952 15.168 11.52 19.264 15.488l46.976-25.856c-3.414-9.736-5.443-20.962-5.568-32.646v-0.058c0-54.656 40.704-100.544 94.208-107.456 1.216-9.216 3.136-23.488 3.136-34.624-0.478-12.706-1.786-24.717-3.881-36.454l0.233 1.574zM70.656 12.416v56.64c0 193.216 148.864 351.936 338.432 369.856h0.384c11.648 1.28 23.552 1.6 35.136 1.6h5.184c41.92 3.2 105.344 13.184 138.56 42.688l16.32 12.8c60.928 47.155 99.776 120.302 99.776 202.522 0 0.058 0 0.117 0 0.175v-0.009c0 142.528-116.544 258.176-259.776 258.176s-259.776-115.712-259.776-258.176c0-79.36 36.288-153.216 99.776-202.688l16.384-12.8-19.2-7.552c-168.832-67.072-278.144-226.624-278.144-406.656v-89.792c0-18.432 15.168-33.216 33.472-33.216h489.28c-15.152 19.249-28.612 41.053-39.462 64.32l-0.858 2.048-415.488 0.064zM251.776 698.752c0 105.728 86.656 191.552 192.768 191.552 106.176 0 192.704-86.144 192.704-191.552 0-105.664-86.592-191.488-192.704-191.488-106.56 0-192.768 86.144-192.768 191.488z" />
<glyph unicode="&#xe919;" glyph-name="share" d="M746.291 721.067h-97.843c-9.37 0-16.981 7.578-16.981 17.067 0 9.421 7.782 17.067 16.981 17.067h153.685v-153.685c0-9.37-7.578-16.981-17.067-16.981-9.421 0-17.067 7.782-17.067 16.981v92.979l-185.737-185.737c-6.622-6.622-17.34-6.639-24.064 0.085-6.673 6.673-6.69 17.442-0.085 24.064l188.177 188.16zM477.867 755.2h-222.037c-37.632 0-68.096-30.481-68.096-68.096v-478.208c0-37.632 30.481-68.096 68.096-68.096h478.208c37.632 0 68.096 30.481 68.096 68.096v222.037h-34.133v-221.833c0-18.876-15.172-34.167-34.167-34.167h-477.798c-18.876 0-34.167 15.172-34.167 34.167v477.798c0 18.876 15.172 34.167 34.167 34.167h221.833v34.133z" />
<glyph unicode="&#xe91a;" glyph-name="notice" d="M526.403 913.25c-247.101 0-447.417-200.308-447.417-447.399 0-247.093 200.317-447.399 447.417-447.399 247.103 0 447.417 200.306 447.417 447.399 0 247.091-200.314 447.399-447.417 447.399zM526.403 99.799c-202.174 0-366.068 163.889-366.068 366.053s163.896 366.053 366.068 366.053 366.068-163.889 366.068-366.053-163.894-366.053-366.068-366.053zM526.403 303.161c-22.462 0-40.674-18.211-40.674-40.672 0-22.464 18.212-40.672 40.674-40.672 22.465 0 40.674 18.209 40.674 40.672 0 22.462-18.209 40.672-40.674 40.672zM526.403 709.888c-22.462 0-40.674-18.209-40.674-40.672v-244.036c0-22.464 18.212-40.672 40.674-40.672 22.465 0 40.674 18.209 40.674 40.672v244.036c0 22.464-18.209 40.672-40.674 40.672z" />
<glyph unicode="&#xe91b;" glyph-name="wxyz_ok" d="M509.297-38.468c-147.405 0-421.639 218.119-421.639 424.359v393.745c0 9.537 8.045 17.258 18.036 17.452l23.873 0.389c0.911 0 94.525 1.881 191.065 39.834 99.069 38.861 162.908 83.562 163.557 84.019l14.145 9.926c3.038 2.147 6.818 3.433 10.898 3.437h0.001c3.83 0 7.656-1.103 10.837-3.372l14.336-9.991c0.649-0.454 64.556-45.155 163.557-84.019 96.604-37.953 190.222-39.834 191.194-39.834l23.678-0.389c9.998-0.195 18.043-7.916 18.043-17.452l0.191-393.742c-0.007-206.24-274.241-424.363-421.772-424.363zM865.99 733.768c-36.263 2.724-112.497 12.005-191.713 43.145-80.964 31.788-140.455 67.471-164.98 83.241-24.46-15.705-84.019-51.453-164.919-83.241-79.087-31.075-155.126-40.352-191.846-43.145v-347.877c0-161.741 238.879-359.485 356.765-359.485 45.677 0 134.683 36.782 222.208 117.62 84.337 77.858 134.687 168.298 134.687 241.865l-0.201 347.877zM475.494 319.785c-5.824-5.89-13.905-9.537-22.838-9.537-0.021 0-0.041 0-0.062 0h0.003c-0.008 0-0.017 0-0.025 0-8.966 0-17.080 3.646-22.942 9.536l-97.319 97.25c-12.65 12.718-12.65 33.215 0 45.868 12.718 12.718 33.219 12.718 45.868 0l74.417-74.353 187.884 187.89c12.711 12.715 33.212 12.715 45.868 0 12.711-12.653 12.711-33.154 0-45.868l-210.855-210.787z" />
<glyph unicode="&#xe91c;" glyph-name="refresh" horiz-adv-x="1118" d="M84.463 543.252c3.021 0 6.067 0.399 9.134 1.198l173.844 46.572c15.122 4.172 26.043 17.805 26.043 33.988 0 3.235-0.436 6.368-1.254 9.344l0.058-0.247c-5.038 18.749-24.233 29.763-43.085 24.863l-91.853-24.632c71.747 154.486 226.698 255.386 400.236 255.386 212.649 0 395.238-151.506 434.125-360.248 3.149-16.452 17.424-28.717 34.564-28.717 2.272 0 4.495 0.216 6.647 0.627l-0.22-0.035c16.455 3.137 28.725 17.41 28.725 34.548 0 2.278-0.217 4.505-0.631 6.663l0.035-0.22c-45.097 242.028-256.748 417.695-503.245 417.695-198.994 0-376.868-114.452-461.199-290.263l-27.233 101.724c-5.038 18.749-24.279 29.763-43.080 24.868-15.131-4.161-26.063-17.797-26.063-33.986 0-3.234 0.436-6.366 1.253-9.341l-0.058 0.247 49.316-183.992c4.198-15.703 18.422-26.040 33.94-26.040zM1117.761 164.050l-49.311 183.962c-5.012 18.729-24.259 29.768-43.054 24.852l-173.844-46.572c-15.129-4.161-26.060-17.794-26.060-33.981 0-3.236 0.437-6.37 1.255-9.346l-0.058 0.247c5.038-18.749 24.259-29.788 43.075-24.868l98.115 26.332c-66.166-165.699-229.53-278.38-410.286-278.38-213.412 0-396.088 152.11-434.412 361.692-3.492 19.128-21.893 31.79-40.899 28.268-16.511-3.099-28.837-17.403-28.837-34.586 0-2.228 0.207-4.407 0.603-6.52l-0.034 0.218c44.436-243.021 256.205-419.389 503.572-419.389 202.388 0 385.772 122.061 467.154 303.478l25.093-93.609c4.151-15.137 17.787-26.076 33.977-26.076 3.23 0 6.358 0.435 9.329 1.25l-0.247-0.058c15.132 4.161 26.064 17.797 26.064 33.986 0 3.236-0.437 6.37-1.255 9.346l0.058-0.247z" />
<glyph unicode="&#xe91d;" glyph-name="warnMore" d="M960 448v0c0 247.424-200.576 448-448 448s-448-200.576-448-448c0-247.424 200.576-448 448-448s448 200.576 448 448v0zM1024 448v0c0-282.77-229.23-512-512-512s-512 229.23-512 512c0 282.77 229.23 512 512 512s512-229.23 512-512v0zM448 448c0-35.346 28.654-64 64-64s64 28.654 64 64v0c0 35.346-28.654 64-64 64s-64-28.654-64-64v0zM192 448c0-35.346 28.654-64 64-64s64 28.654 64 64v0c0 35.346-28.654 64-64 64s-64-28.654-64-64v0zM704 448c0-35.346 28.654-64 64-64s64 28.654 64 64v0c0 35.346-28.654 64-64 64s-64-28.654-64-64v0z" />
</font>
</defs>
</svg>
